<svg width="343" height="111" viewBox="0 0 343 111" fill="none" xmlns="http://www.w3.org/2000/svg">
<path fill-rule="evenodd" clip-rule="evenodd" d="M67.61 24.7066C62.2205 10.2758 48.3103 0 32 0C15.9195 0 2.17194 9.98826 -3.37708 24.0991C-10.2421 21.4515 -17.7015 20 -25.5 20C-59.4655 20 -87 47.5345 -87 81.5C-87 115.466 -59.4655 143 -25.5 143C-3.03323 143 16.6198 130.953 27.3516 112.966C34.3178 120.953 44.5695 126 56 126C68.6958 126 79.9374 119.774 86.8382 110.209C91.7273 120.575 101.638 127.56 112.905 127.299C117.316 127.197 121.467 125.995 125.151 123.935C129.479 135.826 140.13 144.118 152.388 143.834C164.472 143.554 174.612 135.019 178.511 123.204C183.721 125.283 189.355 126.359 195.215 126.223C205.46 125.986 214.841 122.083 222.359 115.671C233.392 132.15 252.179 143 273.5 143C295.967 143 315.62 130.953 326.352 112.966C333.318 120.953 343.57 126 355 126C373.284 126 388.552 113.087 392.181 95.8834C408.732 91.7769 421 76.8211 421 59C421 38.0132 403.987 21 383 21C377.131 21 371.572 22.3306 366.61 24.7066C361.221 10.2758 347.31 0 331 0C314.92 0 301.172 9.98826 295.623 24.0991C288.758 21.4515 281.298 20 273.5 20C255.342 20 239.023 27.869 227.765 40.3829C219.057 30.0794 206.575 23.7527 192.849 24.0706C175.965 24.4617 161.427 34.8091 153.708 49.934C148.319 43.422 140.517 39.409 131.927 39.608C127.129 39.7192 122.637 41.1318 118.721 43.5345C112.797 30.2556 99.4795 21 84 21C78.1308 21 72.5724 22.3306 67.61 24.7066Z" fill="url(#paint0_linear_1149_442)"/>
<defs>
<linearGradient id="paint0_linear_1149_442" x1="127.235" y1="26.9652" x2="130.641" y2="151.919" gradientUnits="userSpaceOnUse">
<stop stop-color="#F5FAFB"/>
<stop offset="1" stop-color="#E3E9EA"/>
</linearGradient>
</defs>
</svg>
